<?xml version="1.0" encoding="utf-8"?>
<!-- Generator: Adobe Illustrator 19.0.0, SVG Export Plug-In . SVG Version: 6.00 Build 0)  -->
<svg version="1.1" id="Layer_1" xmlns="http://www.w3.org/2000/svg" xmlns:xlink="http://www.w3.org/1999/xlink" x="0px" y="0px"
	 viewBox="0 0 754 322.3" enable-background="new 0 0 754 322.3" xml:space="preserve">
<g>
	<path fill="#7A5841" d="M304.3,253.8v-2.6h2.8v-17.6h-2.8v-2.6h18.5v6h-2.5l-0.1-3.4h-10.3v7.2h10.4v2.6h-10.4v7.6h10.8l0.1-3.5
		h2.5v6.1H304.3z"/>
	<path fill="#7A5841" d="M349.4,233.2c0,1.7,0,2.9,0,4.5h-2.5l-0.1-3.3c-1.5-0.9-3.6-1.3-5.4-1.3c-2.9,0-5.8,1.1-5.8,3.9
		c0,2.5,2.7,3.2,6,3.8c4.6,0.7,9.2,1.7,9.2,6.7c0,5.3-5.1,6.8-9.4,6.8c-3.3,0-6-0.8-8.6-3.1v-4.5h2.6l0.1,3.2
		c1.6,1.1,3.9,1.8,5.9,1.8c2.8,0,6.6-0.8,6.6-4.2c0-3.1-4.4-3.7-6.7-4.1c-4.4-0.7-8.4-1.8-8.4-6.5c-0.1-4.7,4.6-6.3,8.5-6.3
		C344.3,230.6,347,231.2,349.4,233.2z"/>
	<path fill="#7A5841" d="M376.5,233.2c0,1.7,0,2.9,0,4.5h-2.5l-0.1-3.3c-1.5-0.9-3.6-1.3-5.4-1.3c-2.9,0-5.8,1.1-5.8,3.9
		c0,2.5,2.7,3.2,6,3.8c4.6,0.7,9.2,1.7,9.2,6.7c0,5.3-5.1,6.8-9.4,6.8c-3.3,0-6-0.8-8.6-3.1v-4.5h2.6l0.1,3.2
		c1.6,1.1,3.9,1.8,5.9,1.8c2.8,0,6.6-0.8,6.6-4.2c0-3.1-4.4-3.7-6.7-4.1c-4.4-0.7-8.4-1.8-8.4-6.5c-0.1-4.7,4.6-6.3,8.5-6.3
		C371.4,230.6,374,231.2,376.5,233.2z"/>
	<path fill="#7A5841" d="M386.1,253.8v-2.6h2.8v-17.6h-2.8v-2.6h18.5v6h-2.5l-0.1-3.4h-10.3v7.2H402v2.6h-10.4v7.6h10.8l0.1-3.5h2.5
		v6.1H386.1z"/>
	<path fill="#7A5841" d="M419.5,251.3h2.8v2.6c-2.8,0-5.6,0-8.4,0v-2.6h2.7v-17.6h-2.8v-2.6h4.8l13.9,17.4v-14.8h-2.8v-2.6
		c2.8,0,5.6,0,8.3,0v2.6h-2.7v20.1h-1.9l-14-17.3V251.3z"/>
	<path fill="#7A5841" d="M449,233.6l-0.1,3.5h-2.5v-6h18.8v6h-2.5l-0.1-3.5h-5.4v17.6h2.9v2.6h-8.7v-2.6h3v-17.6H449z"/>
	<path fill="#7A5841" d="M473.5,253.8v-2.6h2.9v-17.5h-2.8v-2.6c2.8,0,5.6,0,8.5,0v2.6h-2.9v17.5h2.9v2.6
		C479.3,253.8,476.4,253.8,473.5,253.8z"/>
	<path fill="#7A5841" d="M515.8,253.8h-8.1v-2.6h2.8c-0.6-1.4-1.2-2.8-1.8-4h-11.7c-0.5,1.2-1.2,2.6-1.8,4h2.8v2.6c-2.7,0-5.4,0-8,0
		v-2.6h2.2l5.6-12.4l2.4-5.2h-2.6v-2.6c2.3,0,4.7,0,7,0l8.9,20.1h2.2V253.8z M507.7,244.7c-1.4-3.2-2.7-6.5-4.6-10.8
		c-2,4.4-3.5,7.7-4.8,10.8H507.7z"/>
	<path fill="#7A5841" d="M539.1,251.2l0.1-3.5h2.5v6.1c-6,0-11.9,0-17.9,0v-2.6h2.7v-17.6h-2.8v-2.6h8.3v2.6h-2.7v17.5
		C532.6,251.2,535.9,251.2,539.1,251.2z"/>
	<path fill="#7A5841" d="M585.2,242.5c0,5.9-3.7,11.8-11.5,11.8s-11.6-5.8-11.6-11.8c0-6.6,4.4-11.8,11.6-11.8
		C581.5,230.7,585.3,236.5,585.2,242.5z M573.8,233.3c-5.8,0-8.8,4.3-8.8,9.2c0,4.6,2.8,9.1,8.8,9.1c6,0,8.7-4.6,8.7-9.1
		C582.5,237.9,579.7,233.4,573.8,233.3z"/>
	<path fill="#7A5841" d="M593.5,253.8v-2.6h2.9v-17.5h-2.8v-2.6c2.8,0,5.6,0,8.5,0v2.6h-2.9v17.5h2.9v2.6
		C599.2,253.8,596.3,253.8,593.5,253.8z"/>
	<path fill="#7A5841" d="M626.1,251.2l0.1-3.5h2.5v6.1c-6,0-11.9,0-17.9,0v-2.6h2.7v-17.6h-2.8v-2.6h8.3v2.6h-2.7v17.5
		C619.6,251.2,622.9,251.2,626.1,251.2z"/>
	<path fill="#7A5841" d="M653.9,233.2c0,1.7,0,2.9,0,4.5h-2.5l-0.1-3.3c-1.5-0.9-3.6-1.3-5.4-1.3c-2.9,0-5.8,1.1-5.8,3.9
		c0,2.5,2.7,3.2,6,3.8c4.6,0.7,9.2,1.7,9.2,6.7c0,5.3-5.1,6.8-9.4,6.8c-3.3,0-6-0.8-8.6-3.1v-4.5h2.6l0.1,3.2
		c1.6,1.1,3.9,1.8,5.9,1.8c2.8,0,6.6-0.8,6.6-4.2c0-3.1-4.4-3.7-6.7-4.1c-4.4-0.7-8.4-1.8-8.4-6.5c-0.1-4.7,4.6-6.3,8.5-6.3
		C648.8,230.6,651.4,231.2,653.9,233.2z"/>
	<path fill="#7A5841" d="M701,93.9c-74,0-84.6,118.1-117.4,118.1c-12.1,0-16.8-13.3-16.8-30.3c0-1.8,0.1-3.7,0.2-5.6
		c0.2-3.9,0.6-7.9,1.2-12.1c1.4-0.3,2.6-0.6,3.8-1c2.2-0.7,4.2-1.6,6.3-2.7c21-10.9,31.6-28.9,31.6-41.7c0-8.9-4.7-15.3-14.3-15.3
		c-23.4,0-40.9,42.2-40.9,75.7c0,3.6,0.2,7.1,0.7,10.5c-6.2,12.1-11.6,18.9-16.6,18.9c-4.7,0-7.4-6.4-7.4-20.7
		c0-9.1,1-20.7,2.5-33.5c20-29.6,41.4-78.9,41.4-114.2c0-10.1-2-18-9.6-18c-12.6,0-27.4,33.5-38,93c-2.8,15.5-4.9,30.1-6.2,43.2
		c0,0-0.1,0-0.1,0c-12.8,32.8-23.4,49.1-37.7,49.6c-13.1-0.2-18-14.3-18-31.8c0-27.9,12.6-63.6,26.4-63.6c5.2,0,7.9,5.4,7.9,13.3
		c0,5.6-1.6,12.8-4.6,20c-0.8-0.2-1.6-0.4-2.5-0.4c-5.4,0-9.8,4.4-9.8,9.8c0,5.4,4.4,9.8,9.8,9.8c3.2,0,6-1.6,7.8-4l0,0l0,0
		c0.6-0.8,1.1-1.8,1.4-2.8c4.8-9.7,7.4-20.8,7.4-30.4c0-13.3-5.2-23.9-16.8-23.9c-19.3,0-33.8,29.9-38,59.2
		c-11.8,30-21.4,45.6-26.8,45.6c-2,0-3-3.2-3-8.9c0-3.2,0.2-7.4,1-12.3c2.6-20.2,7-44.3,12.2-70.2c0.3,0,0.5,0.1,0.8,0.1
		c5.4,0,9.8-4.4,9.8-9.8c0-5.4-4.4-9.8-9.8-9.8c-4.7,0-8.7,3.4-9.6,7.9l-3.4,17.2c-1.2-11.1-5.4-19-15.3-19
		c-17.6,0-32.6,32.9-38,63.7c-10.5,26.2-18.8,40.6-25,40.6c-3,0-4.9-2.2-4.9-6.9c0-12.8,11.6-32.8,11.6-51
		c0-11.5-5.4-19.9-10.8-27.2c2.7-1.7,4.6-4.8,4.6-8.2c0-5.4-4.4-9.8-9.8-9.8s-9.8,4.4-9.8,9.8c0,0.8,0.1,1.6,0.3,2.3
		c-2.7,14.2-6.5,29-10.7,41.3l0,0c-12.1,32-21.2,50-28.8,50c-2.5,0-4.4-2.7-4.4-10.1c0-19.1,6.8-51.3,14.2-86.5
		c0.9-1.5,1.4-3.2,1.4-5c0-0.4-0.1-0.8-0.1-1.2c0,0,0-0.1,0-0.1h0c-0.7-4.7-4.7-8.4-9.6-8.4c-5.4,0-9.8,4.4-9.8,9.8
		c0,3.4,1.7,6.4,4.4,8.1c-5.3,24.5-12.5,56.6-12.5,78.5c0,15,3.7,25.6,12.6,25.6c15.8,0,24.4-24.2,37.2-58.2c0,0,0,0,0,0
		c3.7-10.1,7.6-23.2,10.8-36c3.5,8.1,8.6,15.8,8.6,27.6c0,15.5-11.6,33.5-11.6,50.3c0,10.1,3.9,16.3,13.1,16.3
		c11.3,0,18.9-12.5,27.1-32.2c0,1.2-0.1,2.4-0.1,3.6c0,17.5,4.7,28.6,15.3,28.6c13.3,0,22.9-17.5,29.8-37.2l-1.2,11.8
		c0,16.5,3,25.4,10.1,25.4c8.7,0,16.5-11.9,29-40.6c0,0.3,0,0.6,0,0.9c0,22.2,6.9,40.2,23.9,40.2c19.3,0,31.8-19.6,42.8-44.6
		c-0.1,1.7-0.2,3.3-0.2,4.9c0,24.4,3.2,39.7,14.5,39.7c8.2,0,15.1-6.9,22.5-21c3.5,12.5,11.2,21,24,21c51,0,53.5-117.9,119.8-117.9
		c27.6,0,41.2,20.5,41.2,42.2c0,24.7-17.5,50.8-52,50.8c-12.6,0-22.6-3.8-31.2-11.2c2.8-2.2,4.6-5.5,4.6-9.3
		c0-6.5-5.3-11.8-11.8-11.8c-6.5,0-11.8,5.3-11.8,11.8c0,3.5,1.5,6.6,3.9,8.8c10.1,11.5,24.7,20.5,46,20.5
		c41.9,0,64.1-31.1,64.1-59.9C754,117.9,737,93.9,701,93.9z M594.7,112.2c3,0,4.7,2.7,4.7,6.7c0,9.4-9.1,26.9-30.1,38.5
		C574,134.1,584.1,112.2,594.7,112.2z M566.2,31.3c3,0,3,4.2,3,7.9c0,35.3-23.4,83.6-33.3,102.3C543.3,91.7,558.1,31.3,566.2,31.3z
		 M390.3,207.6c-5.2,0-7.4-7.2-7.4-17.5c0-27.4,14.8-76.7,28.4-76.7c6.7,0,9.9,7.9,9.9,19.7C421.1,157.6,403.6,207.6,390.3,207.6z"
		/>
	<path fill="#7A5841" d="M234.8,146.5c-3.7,102.8,19.5,175.8,62.1,175.8c21.2,0,36-10.6,45.1-33.5l-0.1,0c0.7-1.7,1.1-3.5,1.1-5.4
		c0-7.7-6.2-13.9-13.9-13.9c-7.7,0-13.9,6.2-13.9,13.9c0,5.4,3.1,10.1,7.7,12.4c-6.6,10-14.6,14.5-27.5,14.5
		c-39.7,0-54.5-90-47.6-193.6c17.5-40.7,32.1-77.4,32.1-98.9c0-11.1-3.5-17.8-11.6-17.8c-11.6,0-16.5,14.8-18.7,25.4
		c-7.4,36.5-12.1,71.3-14.1,103.6c-12.8,29.1-26.1,59.2-36,85.6c-2-33-6.7-70-11.1-102.3c3.5-20.5,5.4-41.9,5.4-63.9
		c0-17.5-2-28.1-11.1-28.1c-8.1,0-10.9,13.1-10.9,27.4c0,24.7,2.5,49.1,5.7,74c-18,72.7-58,145-109.5,145c-36,0-55-26.9-55-62.1
		c0-36,20-69.8,57.7-69.8c21,0,31.3,15.3,31.3,31.8c0,5.5-2,12.9-5.3,20.1c-2-1.2-4.4-1.9-6.9-1.9c-7.7,0-13.9,6.2-13.9,13.9
		c0,7.7,6.2,13.9,13.9,13.9c4.2,0,7.9-1.9,10.5-4.8l0,0c0.1-0.1,0.2-0.2,0.2-0.3c0.4-0.5,0.8-1,1.1-1.6c6.4-9,11.2-24.2,11.2-33.6
		c0-26.9-18.5-44.6-44.1-44.6C26.9,127.5,0,168.4,0,205.7c0,38.5,27.6,67.8,65.8,67.8c50.8,0,94.2-53,114.9-127.5
		c4.2,31.1,8.6,63.3,9.4,97.3c0,0.2-0.1,0.3-0.1,0.5c0,2.5,2.3,4.5,5.2,4.5c2.7,0,4.8-1.8,5.1-4L234.8,146.5z M259.7,24.7
		c2.2-11.8,4.7-18,8.9-18c3.9,0,5.2,3.7,5.2,10.9c0,18-10.4,46.9-24.2,79.4C251.8,73,255.2,48.6,259.7,24.7z M184.7,85.6
		c-4.7-34.8-6.9-59.9-1-59.9c2.7,0,4.4,4.2,4.4,17C188.2,56,186.9,70.5,184.7,85.6z"/>
	<path fill="#7A5841" d="M319.9,63.3c-0.8-3-2.5-5.5-4.5-7.8c-2-2.3-4.1-4.6-6-7c-3-3.9-4.1-8.1-2.4-13c-0.6,0.6-1.3,1.2-1.9,1.8
		c-3.9,3.9-6.7,8.5-8.8,13.6c-2.1,5-3.4,10.3-3.4,15.8c0,8,6.5,14.1,14.5,13.7C316,80,322.1,71.6,319.9,63.3z M314.1,69.5
		c-1.7,0.3-3.5-1.7-3.7-4.1c-0.1-0.9,0.1-1.6,0.4-2.4s0.5-1.5,0.7-2.2c0.3-1.2,0.3-2.5-0.4-3.7c0.2,0.1,0.3,0.3,0.5,0.4
		c1,0.9,1.9,2,2.7,3.3c0.8,1.3,1.4,2.7,1.8,4.2C316.6,67.2,315.7,69.2,314.1,69.5z"/>
</g>
</svg>
